<svg width="376" height="82" viewBox="0 0 376 82" fill="none" xmlns="http://www.w3.org/2000/svg">
<path d="M90.2174 58V31.8182H97.1378V36.4375H97.4446C97.9901 34.9034 98.8992 33.6932 100.172 32.8068C101.445 31.9205 102.967 31.4773 104.74 31.4773C106.536 31.4773 108.064 31.9261 109.325 32.8239C110.587 33.7102 111.428 34.9148 111.848 36.4375H112.121C112.655 34.9375 113.621 33.7386 115.019 32.8409C116.428 31.9318 118.092 31.4773 120.013 31.4773C122.456 31.4773 124.439 32.2557 125.962 33.8125C127.496 35.358 128.263 37.5511 128.263 40.392V58H121.019V41.8239C121.019 40.3693 120.632 39.2784 119.859 38.5511C119.087 37.8239 118.121 37.4602 116.962 37.4602C115.644 37.4602 114.615 37.8807 113.876 38.7216C113.138 39.5511 112.769 40.6477 112.769 42.0114V58H105.729V41.6705C105.729 40.3864 105.359 39.3636 104.621 38.6023C103.894 37.8409 102.933 37.4602 101.74 37.4602C100.933 37.4602 100.206 37.6648 99.5583 38.0739C98.9219 38.4716 98.4162 39.0341 98.0412 39.7614C97.6662 40.4773 97.4787 41.3182 97.4787 42.2841V58H90.2174ZM145.988 46.8523V31.8182H153.25V58H146.278V53.2443H146.005C145.415 54.7784 144.432 56.0114 143.057 56.9432C141.693 57.875 140.028 58.3409 138.062 58.3409C136.312 58.3409 134.772 57.9432 133.443 57.1477C132.113 56.3523 131.074 55.2216 130.324 53.7557C129.585 52.2898 129.21 50.5341 129.199 48.4886V31.8182H136.46V47.1932C136.471 48.7386 136.886 49.9602 137.704 50.858C138.522 51.7557 139.619 52.2045 140.994 52.2045C141.869 52.2045 142.687 52.0057 143.449 51.608C144.21 51.1989 144.824 50.5966 145.29 49.8011C145.767 49.0057 146 48.0227 145.988 46.8523ZM161.519 42.8636V58H154.258V23.0909H161.315V36.4375H161.622C162.213 34.892 163.167 33.6818 164.485 32.8068C165.803 31.9205 167.457 31.4773 169.445 31.4773C171.264 31.4773 172.849 31.875 174.201 32.6705C175.565 33.4545 176.622 34.5852 177.372 36.0625C178.133 37.5284 178.508 39.2841 178.497 41.3295V58H171.235V42.625C171.247 41.0114 170.838 39.7557 170.008 38.858C169.19 37.9602 168.042 37.5114 166.565 37.5114C165.576 37.5114 164.701 37.7216 163.94 38.142C163.19 38.5625 162.599 39.1761 162.167 39.983C161.747 40.7784 161.531 41.7386 161.519 42.8636ZM186.877 58.4943C185.207 58.4943 183.718 58.2045 182.411 57.625C181.104 57.0341 180.07 56.1648 179.309 55.017C178.559 53.858 178.184 52.4148 178.184 50.6875C178.184 49.233 178.451 48.0114 178.985 47.0227C179.519 46.0341 180.246 45.2386 181.167 44.6364C182.087 44.0341 183.133 43.5795 184.303 43.2727C185.485 42.9659 186.724 42.75 188.019 42.625C189.542 42.4659 190.769 42.3182 191.701 42.1818C192.633 42.0341 193.309 41.8182 193.729 41.5341C194.15 41.25 194.36 40.8295 194.36 40.2727V40.1705C194.36 39.0909 194.019 38.2557 193.337 37.6648C192.667 37.0739 191.712 36.7784 190.474 36.7784C189.167 36.7784 188.127 37.0682 187.354 37.6477C186.582 38.2159 186.07 38.9318 185.82 39.7955L179.104 39.25C179.445 37.6591 180.116 36.2841 181.116 35.125C182.116 33.9545 183.405 33.0568 184.985 32.4318C186.576 31.7955 188.417 31.4773 190.508 31.4773C191.962 31.4773 193.354 31.6477 194.684 31.9886C196.025 32.3295 197.212 32.858 198.246 33.5739C199.292 34.2898 200.116 35.2102 200.718 36.3352C201.32 37.4489 201.621 38.7841 201.621 40.3409V58H194.735V54.3693H194.53C194.11 55.1875 193.547 55.9091 192.843 56.5341C192.138 57.1477 191.292 57.6307 190.303 57.983C189.315 58.3239 188.172 58.4943 186.877 58.4943ZM188.957 53.483C190.025 53.483 190.968 53.2727 191.786 52.8523C192.604 52.4205 193.246 51.8409 193.712 51.1136C194.178 50.3864 194.411 49.5625 194.411 48.642V45.8636C194.184 46.0114 193.871 46.1477 193.474 46.2727C193.087 46.3864 192.65 46.4943 192.161 46.5966C191.672 46.6875 191.184 46.7727 190.695 46.8523C190.207 46.9205 189.763 46.983 189.366 47.0398C188.513 47.1648 187.769 47.3636 187.133 47.6364C186.496 47.9091 186.002 48.2784 185.65 48.7443C185.297 49.1989 185.121 49.767 185.121 50.4489C185.121 51.4375 185.479 52.1932 186.195 52.7159C186.922 53.2273 187.843 53.483 188.957 53.483ZM224.239 39.2841L217.591 39.6932C217.478 39.125 217.233 38.6136 216.858 38.1591C216.483 37.6932 215.989 37.3239 215.375 37.0511C214.773 36.767 214.051 36.625 213.211 36.625C212.086 36.625 211.137 36.8636 210.364 37.3409C209.591 37.8068 209.205 38.4318 209.205 39.2159C209.205 39.8409 209.455 40.3693 209.955 40.8011C210.455 41.233 211.313 41.5795 212.529 41.8409L217.267 42.7955C219.813 43.3182 221.711 44.1591 222.961 45.3182C224.211 46.4773 224.836 48 224.836 49.8864C224.836 51.6023 224.33 53.108 223.319 54.4034C222.319 55.6989 220.944 56.7102 219.194 57.4375C217.455 58.1534 215.449 58.5114 213.176 58.5114C209.711 58.5114 206.949 57.7898 204.892 56.3466C202.847 54.892 201.648 52.9148 201.296 50.4148L208.438 50.0398C208.654 51.0966 209.176 51.9034 210.006 52.4602C210.836 53.0057 211.898 53.2784 213.194 53.2784C214.466 53.2784 215.489 53.0341 216.262 52.5455C217.046 52.0455 217.444 51.4034 217.455 50.6193C217.444 49.9602 217.165 49.4205 216.62 49C216.074 48.5682 215.233 48.2386 214.097 48.0114L209.563 47.108C207.006 46.5966 205.103 45.7102 203.853 44.4489C202.614 43.1875 201.995 41.5795 201.995 39.625C201.995 37.9432 202.449 36.4943 203.358 35.2784C204.279 34.0625 205.569 33.125 207.228 32.4659C208.898 31.8068 210.853 31.4773 213.091 31.4773C216.398 31.4773 219 32.1761 220.898 33.5739C222.807 34.9716 223.921 36.875 224.239 39.2841ZM224.608 58V31.8182H231.869V58H224.608ZM228.256 28.4432C227.176 28.4432 226.25 28.0852 225.477 27.3693C224.716 26.642 224.335 25.7727 224.335 24.7614C224.335 23.7614 224.716 22.9034 225.477 22.1875C226.25 21.4602 227.176 21.0966 228.256 21.0966C229.335 21.0966 230.256 21.4602 231.017 22.1875C231.79 22.9034 232.176 23.7614 232.176 24.7614C232.176 25.7727 231.79 26.642 231.017 27.3693C230.256 28.0852 229.335 28.4432 228.256 28.4432ZM232.886 58V31.8182H239.807V36.4375H240.113C240.659 34.9034 241.568 33.6932 242.841 32.8068C244.113 31.9205 245.636 31.4773 247.409 31.4773C249.204 31.4773 250.733 31.9261 251.994 32.8239C253.255 33.7102 254.096 34.9148 254.517 36.4375H254.79C255.324 34.9375 256.29 33.7386 257.687 32.8409C259.096 31.9318 260.761 31.4773 262.682 31.4773C265.125 31.4773 267.108 32.2557 268.63 33.8125C270.165 35.358 270.932 37.5511 270.932 40.392V58H263.687V41.8239C263.687 40.3693 263.301 39.2784 262.528 38.5511C261.755 37.8239 260.79 37.4602 259.63 37.4602C258.312 37.4602 257.284 37.8807 256.545 38.7216C255.807 39.5511 255.437 40.6477 255.437 42.0114V58H248.397V41.6705C248.397 40.3864 248.028 39.3636 247.29 38.6023C246.562 37.8409 245.602 37.4602 244.409 37.4602C243.602 37.4602 242.875 37.6648 242.227 38.0739C241.591 38.4716 241.085 39.0341 240.71 39.7614C240.335 40.4773 240.147 41.3182 240.147 42.2841V58H232.886ZM279.333 58.4943C277.663 58.4943 276.174 58.2045 274.867 57.625C273.561 57.0341 272.526 56.1648 271.765 55.017C271.015 53.858 270.64 52.4148 270.64 50.6875C270.64 49.233 270.907 48.0114 271.441 47.0227C271.975 46.0341 272.703 45.2386 273.623 44.6364C274.543 44.0341 275.589 43.5795 276.759 43.2727C277.941 42.9659 279.18 42.75 280.475 42.625C281.998 42.4659 283.225 42.3182 284.157 42.1818C285.089 42.0341 285.765 41.8182 286.186 41.5341C286.606 41.25 286.816 40.8295 286.816 40.2727V40.1705C286.816 39.0909 286.475 38.2557 285.793 37.6648C285.123 37.0739 284.168 36.7784 282.93 36.7784C281.623 36.7784 280.583 37.0682 279.811 37.6477C279.038 38.2159 278.526 38.9318 278.276 39.7955L271.561 39.25C271.901 37.6591 272.572 36.2841 273.572 35.125C274.572 33.9545 275.862 33.0568 277.441 32.4318C279.032 31.7955 280.873 31.4773 282.964 31.4773C284.418 31.4773 285.811 31.6477 287.14 31.9886C288.481 32.3295 289.668 32.858 290.703 33.5739C291.748 34.2898 292.572 35.2102 293.174 36.3352C293.776 37.4489 294.078 38.7841 294.078 40.3409V58H287.191V54.3693H286.987C286.566 55.1875 286.004 55.9091 285.299 56.5341C284.595 57.1477 283.748 57.6307 282.759 57.983C281.771 58.3239 280.629 58.4943 279.333 58.4943ZM281.413 53.483C282.481 53.483 283.424 53.2727 284.242 52.8523C285.061 52.4205 285.703 51.8409 286.168 51.1136C286.634 50.3864 286.867 49.5625 286.867 48.642V45.8636C286.64 46.0114 286.328 46.1477 285.93 46.2727C285.543 46.3864 285.106 46.4943 284.617 46.5966C284.129 46.6875 283.64 46.7727 283.151 46.8523C282.663 46.9205 282.22 46.983 281.822 47.0398C280.97 47.1648 280.225 47.3636 279.589 47.6364C278.953 47.9091 278.458 48.2784 278.106 48.7443C277.754 49.1989 277.578 49.767 277.578 50.4489C277.578 51.4375 277.936 52.1932 278.651 52.7159C279.379 53.2273 280.299 53.483 281.413 53.483ZM316.695 39.2841L310.047 39.6932C309.934 39.125 309.69 38.6136 309.315 38.1591C308.94 37.6932 308.445 37.3239 307.832 37.0511C307.229 36.767 306.508 36.625 305.667 36.625C304.542 36.625 303.593 36.8636 302.82 37.3409C302.047 37.8068 301.661 38.4318 301.661 39.2159C301.661 39.8409 301.911 40.3693 302.411 40.8011C302.911 41.233 303.769 41.5795 304.985 41.8409L309.724 42.7955C312.269 43.3182 314.167 44.1591 315.417 45.3182C316.667 46.4773 317.292 48 317.292 49.8864C317.292 51.6023 316.786 53.108 315.775 54.4034C314.775 55.6989 313.4 56.7102 311.65 57.4375C309.911 58.1534 307.905 58.5114 305.633 58.5114C302.167 58.5114 299.405 57.7898 297.349 56.3466C295.303 54.892 294.104 52.9148 293.752 50.4148L300.894 50.0398C301.11 51.0966 301.633 51.9034 302.462 52.4602C303.292 53.0057 304.354 53.2784 305.65 53.2784C306.922 53.2784 307.945 53.0341 308.718 52.5455C309.502 52.0455 309.9 51.4034 309.911 50.6193C309.9 49.9602 309.621 49.4205 309.076 49C308.53 48.5682 307.69 48.2386 306.553 48.0114L302.019 47.108C299.462 46.5966 297.559 45.7102 296.309 44.4489C295.07 43.1875 294.451 41.5795 294.451 39.625C294.451 37.9432 294.905 36.4943 295.815 35.2784C296.735 34.0625 298.025 33.125 299.684 32.4659C301.354 31.8068 303.309 31.4773 305.547 31.4773C308.854 31.4773 311.457 32.1761 313.354 33.5739C315.263 34.9716 316.377 36.875 316.695 39.2841ZM324.53 58.4943C322.86 58.4943 321.371 58.2045 320.064 57.625C318.757 57.0341 317.723 56.1648 316.962 55.017C316.212 53.858 315.837 52.4148 315.837 50.6875C315.837 49.233 316.104 48.0114 316.638 47.0227C317.172 46.0341 317.899 45.2386 318.82 44.6364C319.74 44.0341 320.786 43.5795 321.956 43.2727C323.138 42.9659 324.377 42.75 325.672 42.625C327.195 42.4659 328.422 42.3182 329.354 42.1818C330.286 42.0341 330.962 41.8182 331.382 41.5341C331.803 41.25 332.013 40.8295 332.013 40.2727V40.1705C332.013 39.0909 331.672 38.2557 330.99 37.6648C330.32 37.0739 329.365 36.7784 328.127 36.7784C326.82 36.7784 325.78 37.0682 325.007 37.6477C324.235 38.2159 323.723 38.9318 323.473 39.7955L316.757 39.25C317.098 37.6591 317.769 36.2841 318.769 35.125C319.769 33.9545 321.059 33.0568 322.638 32.4318C324.229 31.7955 326.07 31.4773 328.161 31.4773C329.615 31.4773 331.007 31.6477 332.337 31.9886C333.678 32.3295 334.865 32.858 335.899 33.5739C336.945 34.2898 337.769 35.2102 338.371 36.3352C338.973 37.4489 339.274 38.7841 339.274 40.3409V58H332.388V54.3693H332.184C331.763 55.1875 331.201 55.9091 330.496 56.5341C329.792 57.1477 328.945 57.6307 327.956 57.983C326.968 58.3239 325.826 58.4943 324.53 58.4943ZM326.61 53.483C327.678 53.483 328.621 53.2727 329.439 52.8523C330.257 52.4205 330.899 51.8409 331.365 51.1136C331.831 50.3864 332.064 49.5625 332.064 48.642V45.8636C331.837 46.0114 331.524 46.1477 331.127 46.2727C330.74 46.3864 330.303 46.4943 329.814 46.5966C329.326 46.6875 328.837 46.7727 328.348 46.8523C327.86 46.9205 327.417 46.983 327.019 47.0398C326.167 47.1648 325.422 47.3636 324.786 47.6364C324.149 47.9091 323.655 48.2784 323.303 48.7443C322.951 49.1989 322.774 49.767 322.774 50.4489C322.774 51.4375 323.132 52.1932 323.848 52.7159C324.576 53.2273 325.496 53.483 326.61 53.483ZM340.108 58V31.8182H347.148V36.3864H347.42C347.898 34.7614 348.699 33.5341 349.824 32.7045C350.949 31.8636 352.244 31.4432 353.71 31.4432C354.074 31.4432 354.466 31.4659 354.886 31.5114C355.307 31.5568 355.676 31.6193 355.994 31.6989V38.142C355.653 38.0398 355.182 37.9489 354.58 37.8693C353.977 37.7898 353.426 37.75 352.926 37.75C351.858 37.75 350.903 37.983 350.063 38.4489C349.233 38.9034 348.574 39.5398 348.085 40.358C347.608 41.1761 347.369 42.1193 347.369 43.1875V58H340.108ZM354.949 58V31.8182H362.21V58H354.949ZM358.596 28.4432C357.517 28.4432 356.591 28.0852 355.818 27.3693C355.057 26.642 354.676 25.7727 354.676 24.7614C354.676 23.7614 355.057 22.9034 355.818 22.1875C356.591 21.4602 357.517 21.0966 358.596 21.0966C359.676 21.0966 360.596 21.4602 361.358 22.1875C362.13 22.9034 362.517 23.7614 362.517 24.7614C362.517 25.7727 362.13 26.642 361.358 27.3693C360.596 28.0852 359.676 28.4432 358.596 28.4432Z" fill="white"/>
<ellipse cx="21.11" cy="51.0591" rx="10.11" ry="10.11" fill="#0066F7"/>
<rect width="13.6975" height="42.6295" rx="6.84873" transform="matrix(-0.897447 0.441122 0.441122 0.897447 58.5148 19)" fill="white"/>
<rect width="6.61785" height="24.7131" rx="3.30893" transform="matrix(0.342547 0.939501 0.939501 -0.342547 38.3375 41.9246)" fill="white"/>
<rect width="13.6975" height="42.6295" rx="6.84873" transform="matrix(-0.897447 0.441122 0.441122 0.897447 37.6425 19)" fill="white"/>
</svg>
