<svg width="398" height="82" viewBox="0 0 398 82" fill="none" xmlns="http://www.w3.org/2000/svg">
<circle cx="23.1106" cy="51.0609" r="10.1106" fill="#0066F7"/>
<rect width="13.6982" height="42.6319" rx="6.84912" transform="matrix(-0.897447 0.441122 0.441122 0.897447 60.5175 19)" fill="white"/>
<rect width="13.6982" height="42.6319" rx="6.84912" transform="matrix(-0.897447 0.441122 0.441122 0.897447 39.644 19)" fill="white"/>
<path d="M92.2211 58V31.8182H99.1415V36.4375H99.4484C99.9938 34.9034 100.903 33.6932 102.176 32.8068C103.448 31.9205 104.971 31.4773 106.744 31.4773C108.539 31.4773 110.068 31.9261 111.329 32.8239C112.59 33.7102 113.431 34.9148 113.852 36.4375H114.125C114.659 34.9375 115.625 33.7386 117.022 32.8409C118.431 31.9318 120.096 31.4773 122.017 31.4773C124.46 31.4773 126.443 32.2557 127.965 33.8125C129.5 35.358 130.267 37.5511 130.267 40.392V58H123.022V41.8239C123.022 40.3693 122.636 39.2784 121.863 38.5511C121.09 37.8239 120.125 37.4602 118.965 37.4602C117.647 37.4602 116.619 37.8807 115.88 38.7216C115.142 39.5511 114.772 40.6477 114.772 42.0114V58H107.732V41.6705C107.732 40.3864 107.363 39.3636 106.625 38.6023C105.897 37.8409 104.937 37.4602 103.744 37.4602C102.937 37.4602 102.21 37.6648 101.562 38.0739C100.926 38.4716 100.42 39.0341 100.045 39.7614C99.67 40.4773 99.4825 41.3182 99.4825 42.2841V58H92.2211ZM147.992 46.8523V31.8182H155.253V58H148.282V53.2443H148.009C147.418 54.7784 146.435 56.0114 145.06 56.9432C143.697 57.875 142.032 58.3409 140.066 58.3409C138.316 58.3409 136.776 57.9432 135.447 57.1477C134.117 56.3523 133.077 55.2216 132.327 53.7557C131.589 52.2898 131.214 50.5341 131.202 48.4886V31.8182H138.464V47.1932C138.475 48.7386 138.89 49.9602 139.708 50.858C140.526 51.7557 141.623 52.2045 142.998 52.2045C143.873 52.2045 144.691 52.0057 145.452 51.608C146.214 51.1989 146.827 50.5966 147.293 49.8011C147.771 49.0057 148.003 48.0227 147.992 46.8523ZM163.523 42.8636V58H156.262V23.0909H163.319V36.4375H163.625C164.216 34.892 165.171 33.6818 166.489 32.8068C167.807 31.9205 169.461 31.4773 171.449 31.4773C173.267 31.4773 174.853 31.875 176.205 32.6705C177.569 33.4545 178.625 34.5852 179.375 36.0625C180.137 37.5284 180.512 39.2841 180.5 41.3295V58H173.239V42.625C173.25 41.0114 172.841 39.7557 172.012 38.858C171.194 37.9602 170.046 37.5114 168.569 37.5114C167.58 37.5114 166.705 37.7216 165.944 38.142C165.194 38.5625 164.603 39.1761 164.171 39.983C163.75 40.7784 163.534 41.7386 163.523 42.8636ZM188.881 58.4943C187.21 58.4943 185.722 58.2045 184.415 57.625C183.108 57.0341 182.074 56.1648 181.313 55.017C180.563 53.858 180.188 52.4148 180.188 50.6875C180.188 49.233 180.455 48.0114 180.989 47.0227C181.523 46.0341 182.25 45.2386 183.171 44.6364C184.091 44.0341 185.136 43.5795 186.307 43.2727C187.489 42.9659 188.727 42.75 190.023 42.625C191.546 42.4659 192.773 42.3182 193.705 42.1818C194.636 42.0341 195.313 41.8182 195.733 41.5341C196.153 41.25 196.364 40.8295 196.364 40.2727V40.1705C196.364 39.0909 196.023 38.2557 195.341 37.6648C194.671 37.0739 193.716 36.7784 192.477 36.7784C191.171 36.7784 190.131 37.0682 189.358 37.6477C188.585 38.2159 188.074 38.9318 187.824 39.7955L181.108 39.25C181.449 37.6591 182.119 36.2841 183.119 35.125C184.119 33.9545 185.409 33.0568 186.989 32.4318C188.58 31.7955 190.421 31.4773 192.511 31.4773C193.966 31.4773 195.358 31.6477 196.688 31.9886C198.028 32.3295 199.216 32.858 200.25 33.5739C201.296 34.2898 202.119 35.2102 202.722 36.3352C203.324 37.4489 203.625 38.7841 203.625 40.3409V58H196.739V54.3693H196.534C196.114 55.1875 195.551 55.9091 194.847 56.5341C194.142 57.1477 193.296 57.6307 192.307 57.983C191.318 58.3239 190.176 58.4943 188.881 58.4943ZM190.96 53.483C192.028 53.483 192.972 53.2727 193.79 52.8523C194.608 52.4205 195.25 51.8409 195.716 51.1136C196.182 50.3864 196.415 49.5625 196.415 48.642V45.8636C196.188 46.0114 195.875 46.1477 195.477 46.2727C195.091 46.3864 194.653 46.4943 194.165 46.5966C193.676 46.6875 193.188 46.7727 192.699 46.8523C192.21 46.9205 191.767 46.983 191.369 47.0398C190.517 47.1648 189.773 47.3636 189.136 47.6364C188.5 47.9091 188.006 48.2784 187.653 48.7443C187.301 49.1989 187.125 49.767 187.125 50.4489C187.125 51.4375 187.483 52.1932 188.199 52.7159C188.926 53.2273 189.847 53.483 190.96 53.483ZM226.243 39.2841L219.595 39.6932C219.481 39.125 219.237 38.6136 218.862 38.1591C218.487 37.6932 217.993 37.3239 217.379 37.0511C216.777 36.767 216.055 36.625 215.214 36.625C214.089 36.625 213.14 36.8636 212.368 37.3409C211.595 37.8068 211.209 38.4318 211.209 39.2159C211.209 39.8409 211.459 40.3693 211.959 40.8011C212.459 41.233 213.317 41.5795 214.532 41.8409L219.271 42.7955C221.817 43.3182 223.714 44.1591 224.964 45.3182C226.214 46.4773 226.839 48 226.839 49.8864C226.839 51.6023 226.334 53.108 225.322 54.4034C224.322 55.6989 222.947 56.7102 221.197 57.4375C219.459 58.1534 217.453 58.5114 215.18 58.5114C211.714 58.5114 208.953 57.7898 206.896 56.3466C204.851 54.892 203.652 52.9148 203.3 50.4148L210.442 50.0398C210.657 51.0966 211.18 51.9034 212.01 52.4602C212.839 53.0057 213.902 53.2784 215.197 53.2784C216.47 53.2784 217.493 53.0341 218.265 52.5455C219.05 52.0455 219.447 51.4034 219.459 50.6193C219.447 49.9602 219.169 49.4205 218.623 49C218.078 48.5682 217.237 48.2386 216.101 48.0114L211.567 47.108C209.01 46.5966 207.106 45.7102 205.856 44.4489C204.618 43.1875 203.998 41.5795 203.998 39.625C203.998 37.9432 204.453 36.4943 205.362 35.2784C206.282 34.0625 207.572 33.125 209.231 32.4659C210.902 31.8068 212.856 31.4773 215.095 31.4773C218.402 31.4773 221.004 32.1761 222.902 33.5739C224.811 34.9716 225.925 36.875 226.243 39.2841ZM226.612 58V31.8182H233.873V58H226.612ZM230.259 28.4432C229.18 28.4432 228.254 28.0852 227.481 27.3693C226.72 26.642 226.339 25.7727 226.339 24.7614C226.339 23.7614 226.72 22.9034 227.481 22.1875C228.254 21.4602 229.18 21.0966 230.259 21.0966C231.339 21.0966 232.259 21.4602 233.021 22.1875C233.794 22.9034 234.18 23.7614 234.18 24.7614C234.18 25.7727 233.794 26.642 233.021 27.3693C232.259 28.0852 231.339 28.4432 230.259 28.4432ZM234.89 58V31.8182H241.81V36.4375H242.117C242.663 34.9034 243.572 33.6932 244.844 32.8068C246.117 31.9205 247.64 31.4773 249.413 31.4773C251.208 31.4773 252.736 31.9261 253.998 32.8239C255.259 33.7102 256.1 34.9148 256.521 36.4375H256.793C257.327 34.9375 258.293 33.7386 259.691 32.8409C261.1 31.9318 262.765 31.4773 264.685 31.4773C267.128 31.4773 269.111 32.2557 270.634 33.8125C272.168 35.358 272.935 37.5511 272.935 40.392V58H265.691V41.8239C265.691 40.3693 265.305 39.2784 264.532 38.5511C263.759 37.8239 262.793 37.4602 261.634 37.4602C260.316 37.4602 259.288 37.8807 258.549 38.7216C257.81 39.5511 257.441 40.6477 257.441 42.0114V58H250.401V41.6705C250.401 40.3864 250.032 39.3636 249.293 38.6023C248.566 37.8409 247.606 37.4602 246.413 37.4602C245.606 37.4602 244.878 37.6648 244.231 38.0739C243.594 38.4716 243.089 39.0341 242.714 39.7614C242.339 40.4773 242.151 41.3182 242.151 42.2841V58H234.89ZM281.337 58.4943C279.667 58.4943 278.178 58.2045 276.871 57.625C275.564 57.0341 274.53 56.1648 273.769 55.017C273.019 53.858 272.644 52.4148 272.644 50.6875C272.644 49.233 272.911 48.0114 273.445 47.0227C273.979 46.0341 274.706 45.2386 275.627 44.6364C276.547 44.0341 277.593 43.5795 278.763 43.2727C279.945 42.9659 281.184 42.75 282.479 42.625C284.002 42.4659 285.229 42.3182 286.161 42.1818C287.093 42.0341 287.769 41.8182 288.189 41.5341C288.61 41.25 288.82 40.8295 288.82 40.2727V40.1705C288.82 39.0909 288.479 38.2557 287.797 37.6648C287.127 37.0739 286.172 36.7784 284.934 36.7784C283.627 36.7784 282.587 37.0682 281.814 37.6477C281.042 38.2159 280.53 38.9318 280.28 39.7955L273.564 39.25C273.905 37.6591 274.576 36.2841 275.576 35.125C276.576 33.9545 277.865 33.0568 279.445 32.4318C281.036 31.7955 282.877 31.4773 284.968 31.4773C286.422 31.4773 287.814 31.6477 289.144 31.9886C290.485 32.3295 291.672 32.858 292.706 33.5739C293.752 34.2898 294.576 35.2102 295.178 36.3352C295.78 37.4489 296.081 38.7841 296.081 40.3409V58H289.195V54.3693H288.99C288.57 55.1875 288.007 55.9091 287.303 56.5341C286.598 57.1477 285.752 57.6307 284.763 57.983C283.774 58.3239 282.632 58.4943 281.337 58.4943ZM283.417 53.483C284.485 53.483 285.428 53.2727 286.246 52.8523C287.064 52.4205 287.706 51.8409 288.172 51.1136C288.638 50.3864 288.871 49.5625 288.871 48.642V45.8636C288.644 46.0114 288.331 46.1477 287.934 46.2727C287.547 46.3864 287.11 46.4943 286.621 46.5966C286.132 46.6875 285.644 46.7727 285.155 46.8523C284.667 46.9205 284.223 46.983 283.826 47.0398C282.973 47.1648 282.229 47.3636 281.593 47.6364C280.956 47.9091 280.462 48.2784 280.11 48.7443C279.757 49.1989 279.581 49.767 279.581 50.4489C279.581 51.4375 279.939 52.1932 280.655 52.7159C281.382 53.2273 282.303 53.483 283.417 53.483ZM318.699 39.2841L312.051 39.6932C311.938 39.125 311.693 38.6136 311.318 38.1591C310.943 37.6932 310.449 37.3239 309.835 37.0511C309.233 36.767 308.511 36.625 307.671 36.625C306.546 36.625 305.597 36.8636 304.824 37.3409C304.051 37.8068 303.665 38.4318 303.665 39.2159C303.665 39.8409 303.915 40.3693 304.415 40.8011C304.915 41.233 305.773 41.5795 306.989 41.8409L311.727 42.7955C314.273 43.3182 316.171 44.1591 317.421 45.3182C318.671 46.4773 319.296 48 319.296 49.8864C319.296 51.6023 318.79 53.108 317.778 54.4034C316.778 55.6989 315.403 56.7102 313.653 57.4375C311.915 58.1534 309.909 58.5114 307.636 58.5114C304.171 58.5114 301.409 57.7898 299.352 56.3466C297.307 54.892 296.108 52.9148 295.756 50.4148L302.898 50.0398C303.114 51.0966 303.636 51.9034 304.466 52.4602C305.296 53.0057 306.358 53.2784 307.653 53.2784C308.926 53.2784 309.949 53.0341 310.722 52.5455C311.506 52.0455 311.903 51.4034 311.915 50.6193C311.903 49.9602 311.625 49.4205 311.08 49C310.534 48.5682 309.693 48.2386 308.557 48.0114L304.023 47.108C301.466 46.5966 299.563 45.7102 298.313 44.4489C297.074 43.1875 296.455 41.5795 296.455 39.625C296.455 37.9432 296.909 36.4943 297.818 35.2784C298.739 34.0625 300.028 33.125 301.688 32.4659C303.358 31.8068 305.313 31.4773 307.551 31.4773C310.858 31.4773 313.46 32.1761 315.358 33.5739C317.267 34.9716 318.381 36.875 318.699 39.2841ZM326.534 58.4943C324.863 58.4943 323.375 58.2045 322.068 57.625C320.761 57.0341 319.727 56.1648 318.966 55.017C318.216 53.858 317.841 52.4148 317.841 50.6875C317.841 49.233 318.108 48.0114 318.642 47.0227C319.176 46.0341 319.903 45.2386 320.824 44.6364C321.744 44.0341 322.79 43.5795 323.96 43.2727C325.142 42.9659 326.38 42.75 327.676 42.625C329.199 42.4659 330.426 42.3182 331.358 42.1818C332.29 42.0341 332.966 41.8182 333.386 41.5341C333.807 41.25 334.017 40.8295 334.017 40.2727V40.1705C334.017 39.0909 333.676 38.2557 332.994 37.6648C332.324 37.0739 331.369 36.7784 330.13 36.7784C328.824 36.7784 327.784 37.0682 327.011 37.6477C326.238 38.2159 325.727 38.9318 325.477 39.7955L318.761 39.25C319.102 37.6591 319.773 36.2841 320.773 35.125C321.773 33.9545 323.062 33.0568 324.642 32.4318C326.233 31.7955 328.074 31.4773 330.165 31.4773C331.619 31.4773 333.011 31.6477 334.341 31.9886C335.682 32.3295 336.869 32.858 337.903 33.5739C338.949 34.2898 339.773 35.2102 340.375 36.3352C340.977 37.4489 341.278 38.7841 341.278 40.3409V58H334.392V54.3693H334.187C333.767 55.1875 333.204 55.9091 332.5 56.5341C331.795 57.1477 330.949 57.6307 329.96 57.983C328.971 58.3239 327.829 58.4943 326.534 58.4943ZM328.613 53.483C329.682 53.483 330.625 53.2727 331.443 52.8523C332.261 52.4205 332.903 51.8409 333.369 51.1136C333.835 50.3864 334.068 49.5625 334.068 48.642V45.8636C333.841 46.0114 333.528 46.1477 333.13 46.2727C332.744 46.3864 332.307 46.4943 331.818 46.5966C331.329 46.6875 330.841 46.7727 330.352 46.8523C329.863 46.9205 329.42 46.983 329.023 47.0398C328.17 47.1648 327.426 47.3636 326.79 47.6364C326.153 47.9091 325.659 48.2784 325.307 48.7443C324.954 49.1989 324.778 49.767 324.778 50.4489C324.778 51.4375 325.136 52.1932 325.852 52.7159C326.579 53.2273 327.5 53.483 328.613 53.483ZM342.112 58V31.8182H349.151V36.3864H349.424C349.901 34.7614 350.703 33.5341 351.828 32.7045C352.953 31.8636 354.248 31.4432 355.714 31.4432C356.078 31.4432 356.47 31.4659 356.89 31.5114C357.311 31.5568 357.68 31.6193 357.998 31.6989V38.142C357.657 38.0398 357.186 37.9489 356.583 37.8693C355.981 37.7898 355.43 37.75 354.93 37.75C353.862 37.75 352.907 37.983 352.066 38.4489C351.237 38.9034 350.578 39.5398 350.089 40.358C349.612 41.1761 349.373 42.1193 349.373 43.1875V58H342.112ZM356.952 58V31.8182H364.214V58H356.952ZM360.6 28.4432C359.521 28.4432 358.594 28.0852 357.822 27.3693C357.06 26.642 356.68 25.7727 356.68 24.7614C356.68 23.7614 357.06 22.9034 357.822 22.1875C358.594 21.4602 359.521 21.0966 360.6 21.0966C361.68 21.0966 362.6 21.4602 363.361 22.1875C364.134 22.9034 364.521 23.7614 364.521 24.7614C364.521 25.7727 364.134 26.642 363.361 27.3693C362.6 28.0852 361.68 28.4432 360.6 28.4432Z" fill="white"/>
</svg>
