<svg width="398" height="82" viewBox="0 0 398 82" fill="none" xmlns="http://www.w3.org/2000/svg">
<circle cx="23.1106" cy="51.0609" r="10.1106" fill="#0066F7"/>
<rect width="13.6982" height="42.6319" rx="6.84912" transform="matrix(-0.897447 0.441122 0.441122 0.897447 60.5176 19)" fill="white"/>
<rect width="13.6982" height="42.6319" rx="6.84912" transform="matrix(-0.897447 0.441122 0.441122 0.897447 39.6439 19)" fill="white"/>
<path d="M92.2211 58V31.8182H99.1415V36.4375H99.4484C99.9938 34.9034 100.903 33.6932 102.176 32.8068C103.448 31.9205 104.971 31.4773 106.744 31.4773C108.539 31.4773 110.068 31.9261 111.329 32.8239C112.59 33.7102 113.431 34.9148 113.852 36.4375H114.125C114.659 34.9375 115.625 33.7386 117.022 32.8409C118.431 31.9318 120.096 31.4773 122.017 31.4773C124.46 31.4773 126.443 32.2557 127.965 33.8125C129.5 35.358 130.267 37.5511 130.267 40.392V58H123.022V41.8239C123.022 40.3693 122.636 39.2784 121.863 38.5511C121.09 37.8239 120.125 37.4602 118.965 37.4602C117.647 37.4602 116.619 37.8807 115.88 38.7216C115.142 39.5511 114.772 40.6477 114.772 42.0114V58H107.732V41.6705C107.732 40.3864 107.363 39.3636 106.625 38.6023C105.897 37.8409 104.937 37.4602 103.744 37.4602C102.937 37.4602 102.21 37.6648 101.562 38.0739C100.926 38.4716 100.42 39.0341 100.045 39.7614C99.67 40.4773 99.4825 41.3182 99.4825 42.2841V58H92.2211ZM147.992 46.8523V31.8182H155.253V58H148.282V53.2443H148.009C147.418 54.7784 146.435 56.0114 145.06 56.9432C143.697 57.875 142.032 58.3409 140.066 58.3409C138.316 58.3409 136.776 57.9432 135.447 57.1477C134.117 56.3523 133.077 55.2216 132.327 53.7557C131.589 52.2898 131.214 50.5341 131.202 48.4886V31.8182H138.464V47.1932C138.475 48.7386 138.89 49.9602 139.708 50.858C140.526 51.7557 141.623 52.2045 142.998 52.2045C143.873 52.2045 144.691 52.0057 145.452 51.608C146.214 51.1989 146.827 50.5966 147.293 49.8011C147.771 49.0057 148.003 48.0227 147.992 46.8523ZM163.523 42.8636V58H156.262V23.0909H163.319V36.4375H163.625C164.216 34.892 165.171 33.6818 166.489 32.8068C167.807 31.9205 169.461 31.4773 171.449 31.4773C173.267 31.4773 174.853 31.875 176.205 32.6705C177.569 33.4545 178.625 34.5852 179.375 36.0625C180.137 37.5284 180.512 39.2841 180.5 41.3295V58H173.239V42.625C173.25 41.0114 172.841 39.7557 172.012 38.858C171.194 37.9602 170.046 37.5114 168.569 37.5114C167.58 37.5114 166.705 37.7216 165.944 38.142C165.194 38.5625 164.603 39.1761 164.171 39.983C163.75 40.7784 163.534 41.7386 163.523 42.8636ZM188.881 58.4943C187.21 58.4943 185.722 58.2045 184.415 57.625C183.108 57.0341 182.074 56.1648 181.313 55.017C180.563 53.858 180.188 52.4148 180.188 50.6875C180.188 49.233 180.455 48.0114 180.989 47.0227C181.523 46.0341 182.25 45.2386 183.171 44.6364C184.091 44.0341 185.136 43.5795 186.307 43.2727C187.489 42.9659 188.727 42.75 190.023 42.625C191.546 42.4659 192.773 42.3182 193.705 42.1818C194.636 42.0341 195.313 41.8182 195.733 41.5341C196.153 41.25 196.364 40.8295 196.364 40.2727V40.1705C196.364 39.0909 196.023 38.2557 195.341 37.6648C194.671 37.0739 193.716 36.7784 192.477 36.7784C191.171 36.7784 190.131 37.0682 189.358 37.6477C188.585 38.2159 188.074 38.9318 187.824 39.7955L181.108 39.25C181.449 37.6591 182.119 36.2841 183.119 35.125C184.119 33.9545 185.409 33.0568 186.989 32.4318C188.58 31.7955 190.421 31.4773 192.511 31.4773C193.966 31.4773 195.358 31.6477 196.688 31.9886C198.028 32.3295 199.216 32.858 200.25 33.5739C201.296 34.2898 202.119 35.2102 202.722 36.3352C203.324 37.4489 203.625 38.7841 203.625 40.3409V58H196.739V54.3693H196.534C196.114 55.1875 195.551 55.9091 194.847 56.5341C194.142 57.1477 193.296 57.6307 192.307 57.983C191.318 58.3239 190.176 58.4943 188.881 58.4943ZM190.96 53.483C192.028 53.483 192.972 53.2727 193.79 52.8523C194.608 52.4205 195.25 51.8409 195.716 51.1136C196.182 50.3864 196.415 49.5625 196.415 48.642V45.8636C196.188 46.0114 195.875 46.1477 195.477 46.2727C195.091 46.3864 194.653 46.4943 194.165 46.5966C193.676 46.6875 193.188 46.7727 192.699 46.8523C192.21 46.9205 191.767 46.983 191.369 47.0398C190.517 47.1648 189.773 47.3636 189.136 47.6364C188.5 47.9091 188.006 48.2784 187.653 48.7443C187.301 49.1989 187.125 49.767 187.125 50.4489C187.125 51.4375 187.483 52.1932 188.199 52.7159C188.926 53.2273 189.847 53.483 190.96 53.483ZM226.243 39.2841L219.595 39.6932C219.481 39.125 219.237 38.6136 218.862 38.1591C218.487 37.6932 217.993 37.3239 217.379 37.0511C216.777 36.767 216.055 36.625 215.214 36.625C214.089 36.625 213.14 36.8636 212.368 37.3409C211.595 37.8068 211.209 38.4318 211.209 39.2159C211.209 39.8409 211.459 40.3693 211.959 40.8011C212.459 41.233 213.317 41.5795 214.532 41.8409L219.271 42.7955C221.817 43.3182 223.714 44.1591 224.964 45.3182C226.214 46.4773 226.839 48 226.839 49.8864C226.839 51.6023 226.334 53.108 225.322 54.4034C224.322 55.6989 222.947 56.7102 221.197 57.4375C219.459 58.1534 217.453 58.5114 215.18 58.5114C211.714 58.5114 208.953 57.7898 206.896 56.3466C204.851 54.892 203.652 52.9148 203.3 50.4148L210.442 50.0398C210.657 51.0966 211.18 51.9034 212.01 52.4602C212.839 53.0057 213.902 53.2784 215.197 53.2784C216.47 53.2784 217.493 53.0341 218.265 52.5455C219.05 52.0455 219.447 51.4034 219.459 50.6193C219.447 49.9602 219.169 49.4205 218.623 49C218.078 48.5682 217.237 48.2386 216.101 48.0114L211.567 47.108C209.01 46.5966 207.106 45.7102 205.856 44.4489C204.618 43.1875 203.998 41.5795 203.998 39.625C203.998 37.9432 204.453 36.4943 205.362 35.2784C206.282 34.0625 207.572 33.125 209.231 32.4659C210.902 31.8068 212.856 31.4773 215.095 31.4773C218.402 31.4773 221.004 32.1761 222.902 33.5739C224.811 34.9716 225.925 36.875 226.243 39.2841ZM226.612 58V31.8182H233.873V58H226.612ZM230.259 28.4432C229.18 28.4432 228.254 28.0852 227.481 27.3693C226.72 26.642 226.339 25.7727 226.339 24.7614C226.339 23.7614 226.72 22.9034 227.481 22.1875C228.254 21.4602 229.18 21.0966 230.259 21.0966C231.339 21.0966 232.259 21.4602 233.021 22.1875C233.794 22.9034 234.18 23.7614 234.18 24.7614C234.18 25.7727 233.794 26.642 233.021 27.3693C232.259 28.0852 231.339 28.4432 230.259 28.4432ZM234.89 58V31.8182H241.81V36.4375H242.117C242.663 34.9034 243.572 33.6932 244.844 32.8068C246.117 31.9205 247.64 31.4773 249.413 31.4773C251.208 31.4773 252.736 31.9261 253.998 32.8239C255.259 33.7102 256.1 34.9148 256.521 36.4375H256.793C257.327 34.9375 258.293 33.7386 259.691 32.8409C261.1 31.9318 262.765 31.4773 264.685 31.4773C267.128 31.4773 269.111 32.2557 270.634 33.8125C272.168 35.358 272.935 37.5511 272.935 40.392V58H265.691V41.8239C265.691 40.3693 265.305 39.2784 264.532 38.5511C263.759 37.8239 262.793 37.4602 261.634 37.4602C260.316 37.4602 259.288 37.8807 258.549 38.7216C257.81 39.5511 257.441 40.6477 257.441 42.0114V58H250.401V41.6705C250.401 40.3864 250.032 39.3636 249.293 38.6023C248.566 37.8409 247.606 37.4602 246.413 37.4602C245.606 37.4602 244.878 37.6648 244.231 38.0739C243.594 38.4716 243.089 39.0341 242.714 39.7614C242.339 40.4773 242.151 41.3182 242.151 42.2841V58H234.89ZM290.184 40.7841V46.5455H274.263V40.7841H290.184ZM299.037 58.4943C297.367 58.4943 295.878 58.2045 294.571 57.625C293.264 57.0341 292.23 56.1648 291.469 55.017C290.719 53.858 290.344 52.4148 290.344 50.6875C290.344 49.233 290.611 48.0114 291.145 47.0227C291.679 46.0341 292.406 45.2386 293.327 44.6364C294.247 44.0341 295.293 43.5795 296.463 43.2727C297.645 42.9659 298.884 42.75 300.179 42.625C301.702 42.4659 302.929 42.3182 303.861 42.1818C304.793 42.0341 305.469 41.8182 305.889 41.5341C306.31 41.25 306.52 40.8295 306.52 40.2727V40.1705C306.52 39.0909 306.179 38.2557 305.497 37.6648C304.827 37.0739 303.872 36.7784 302.634 36.7784C301.327 36.7784 300.287 37.0682 299.514 37.6477C298.742 38.2159 298.23 38.9318 297.98 39.7955L291.264 39.25C291.605 37.6591 292.276 36.2841 293.276 35.125C294.276 33.9545 295.565 33.0568 297.145 32.4318C298.736 31.7955 300.577 31.4773 302.668 31.4773C304.122 31.4773 305.514 31.6477 306.844 31.9886C308.185 32.3295 309.372 32.858 310.406 33.5739C311.452 34.2898 312.276 35.2102 312.878 36.3352C313.48 37.4489 313.781 38.7841 313.781 40.3409V58H306.895V54.3693H306.69C306.27 55.1875 305.707 55.9091 305.003 56.5341C304.298 57.1477 303.452 57.6307 302.463 57.983C301.475 58.3239 300.332 58.4943 299.037 58.4943ZM301.117 53.483C302.185 53.483 303.128 53.2727 303.946 52.8523C304.764 52.4205 305.406 51.8409 305.872 51.1136C306.338 50.3864 306.571 49.5625 306.571 48.642V45.8636C306.344 46.0114 306.031 46.1477 305.634 46.2727C305.247 46.3864 304.81 46.4943 304.321 46.5966C303.832 46.6875 303.344 46.7727 302.855 46.8523C302.367 46.9205 301.923 46.983 301.526 47.0398C300.673 47.1648 299.929 47.3636 299.293 47.6364C298.656 47.9091 298.162 48.2784 297.81 48.7443C297.457 49.1989 297.281 49.767 297.281 50.4489C297.281 51.4375 297.639 52.1932 298.355 52.7159C299.082 53.2273 300.003 53.483 301.117 53.483ZM336.399 39.2841L329.751 39.6932C329.638 39.125 329.393 38.6136 329.018 38.1591C328.643 37.6932 328.149 37.3239 327.535 37.0511C326.933 36.767 326.211 36.625 325.371 36.625C324.246 36.625 323.297 36.8636 322.524 37.3409C321.751 37.8068 321.365 38.4318 321.365 39.2159C321.365 39.8409 321.615 40.3693 322.115 40.8011C322.615 41.233 323.473 41.5795 324.689 41.8409L329.427 42.7955C331.973 43.3182 333.871 44.1591 335.121 45.3182C336.371 46.4773 336.996 48 336.996 49.8864C336.996 51.6023 336.49 53.108 335.478 54.4034C334.478 55.6989 333.103 56.7102 331.353 57.4375C329.615 58.1534 327.609 58.5114 325.336 58.5114C321.871 58.5114 319.109 57.7898 317.052 56.3466C315.007 54.892 313.808 52.9148 313.456 50.4148L320.598 50.0398C320.814 51.0966 321.336 51.9034 322.166 52.4602C322.996 53.0057 324.058 53.2784 325.353 53.2784C326.626 53.2784 327.649 53.0341 328.422 52.5455C329.206 52.0455 329.603 51.4034 329.615 50.6193C329.603 49.9602 329.325 49.4205 328.78 49C328.234 48.5682 327.393 48.2386 326.257 48.0114L321.723 47.108C319.166 46.5966 317.263 45.7102 316.013 44.4489C314.774 43.1875 314.155 41.5795 314.155 39.625C314.155 37.9432 314.609 36.4943 315.518 35.2784C316.439 34.0625 317.728 33.125 319.388 32.4659C321.058 31.8068 323.013 31.4773 325.251 31.4773C328.558 31.4773 331.16 32.1761 333.058 33.5739C334.967 34.9716 336.081 36.875 336.399 39.2841ZM344.234 58.4943C342.563 58.4943 341.075 58.2045 339.768 57.625C338.461 57.0341 337.427 56.1648 336.666 55.017C335.916 53.858 335.541 52.4148 335.541 50.6875C335.541 49.233 335.808 48.0114 336.342 47.0227C336.876 46.0341 337.603 45.2386 338.524 44.6364C339.444 44.0341 340.49 43.5795 341.66 43.2727C342.842 42.9659 344.08 42.75 345.376 42.625C346.899 42.4659 348.126 42.3182 349.058 42.1818C349.99 42.0341 350.666 41.8182 351.086 41.5341C351.507 41.25 351.717 40.8295 351.717 40.2727V40.1705C351.717 39.0909 351.376 38.2557 350.694 37.6648C350.024 37.0739 349.069 36.7784 347.83 36.7784C346.524 36.7784 345.484 37.0682 344.711 37.6477C343.938 38.2159 343.427 38.9318 343.177 39.7955L336.461 39.25C336.802 37.6591 337.473 36.2841 338.473 35.125C339.473 33.9545 340.762 33.0568 342.342 32.4318C343.933 31.7955 345.774 31.4773 347.865 31.4773C349.319 31.4773 350.711 31.6477 352.041 31.9886C353.382 32.3295 354.569 32.858 355.603 33.5739C356.649 34.2898 357.473 35.2102 358.075 36.3352C358.677 37.4489 358.978 38.7841 358.978 40.3409V58H352.092V54.3693H351.887C351.467 55.1875 350.904 55.9091 350.2 56.5341C349.495 57.1477 348.649 57.6307 347.66 57.983C346.671 58.3239 345.529 58.4943 344.234 58.4943ZM346.313 53.483C347.382 53.483 348.325 53.2727 349.143 52.8523C349.961 52.4205 350.603 51.8409 351.069 51.1136C351.535 50.3864 351.768 49.5625 351.768 48.642V45.8636C351.541 46.0114 351.228 46.1477 350.83 46.2727C350.444 46.3864 350.007 46.4943 349.518 46.5966C349.029 46.6875 348.541 46.7727 348.052 46.8523C347.563 46.9205 347.12 46.983 346.723 47.0398C345.87 47.1648 345.126 47.3636 344.49 47.6364C343.853 47.9091 343.359 48.2784 343.007 48.7443C342.654 49.1989 342.478 49.767 342.478 50.4489C342.478 51.4375 342.836 52.1932 343.552 52.7159C344.279 53.2273 345.2 53.483 346.313 53.483ZM359.812 58V31.8182H366.852V36.3864H367.124C367.602 34.7614 368.403 33.5341 369.528 32.7045C370.653 31.8636 371.948 31.4432 373.414 31.4432C373.778 31.4432 374.17 31.4659 374.59 31.5114C375.011 31.5568 375.38 31.6193 375.698 31.6989V38.142C375.357 38.0398 374.886 37.9489 374.283 37.8693C373.681 37.7898 373.13 37.75 372.63 37.75C371.562 37.75 370.607 37.983 369.766 38.4489C368.937 38.9034 368.278 39.5398 367.789 40.358C367.312 41.1761 367.073 42.1193 367.073 43.1875V58H359.812ZM374.652 58V31.8182H381.914V58H374.652ZM378.3 28.4432C377.221 28.4432 376.294 28.0852 375.522 27.3693C374.76 26.642 374.38 25.7727 374.38 24.7614C374.38 23.7614 374.76 22.9034 375.522 22.1875C376.294 21.4602 377.221 21.0966 378.3 21.0966C379.38 21.0966 380.3 21.4602 381.061 22.1875C381.834 22.9034 382.221 23.7614 382.221 24.7614C382.221 25.7727 381.834 26.642 381.061 27.3693C380.3 28.0852 379.38 28.4432 378.3 28.4432Z" fill="white"/>
</svg>
